<svg width="114" height="114" viewBox="0 0 114 114" fill="none" xmlns="http://www.w3.org/2000/svg">
<rect width="114" height="114" rx="20" fill="url(#paint0_linear_1072_8934)"/>
<path d="M58.7529 26.0627C54.6929 26.2669 49.7144 27.0948 45.8132 28.2857C45.0988 28.5012 42.5471 29.261 43.4657 30.3952C44.509 31.6881 48.2401 30.5086 49.6917 30.3045C53.8877 29.7034 66.9521 27.8547 64.2531 35.9866C63.4706 38.3456 61.1117 40.9428 59.3879 42.6781C57.494 41.5326 54.0011 39.7973 54.0011 39.7973C52.1413 38.8673 50.2247 38.0054 48.3195 37.2001C46.505 36.4402 41.6626 34.2853 39.9388 34.4214C38.2377 34.5575 37.4098 35.8278 38.4758 37.3135C39.4625 38.6972 43.2729 40.3191 44.8946 41.2491C45.9947 41.8728 53.9558 46.5456 54.0805 47.124C54.1259 47.3168 53.4795 47.7251 53.298 47.8612C49.567 50.6739 45.3483 52.636 41.3337 54.9497C40.1316 55.6415 37.2397 57.2066 38.4305 58.9759C39.5872 60.7112 42.7626 59.2595 44.2596 58.7151C54.0352 55.1652 68.7553 47.4983 74.2555 38.3456C81.0712 26.9927 66.2263 25.6884 58.7642 26.0514L58.7529 26.0627Z" fill="white"/>
<path d="M75.6159 58.9871C74.9014 56.3105 71.2838 51.6264 69.1064 49.9479C69.0723 49.9252 69.0383 49.8912 69.0043 49.8685C69.0043 49.8685 68.8342 49.7211 68.6074 49.585L68.46 49.687L61.7236 54.0876C63.1412 56.2765 64.8536 58.2045 64.5134 61.0286C64.0711 64.7826 57.6977 64.794 54.9533 64.6465C51.982 64.4878 49.0789 63.6258 46.255 63.3536C45.1777 63.2515 42.0023 63.6371 43.7601 65.1569C45.189 66.4045 52.9347 67.6747 55.0894 67.9243C61.0092 68.6274 78.417 69.376 75.6159 58.9531V58.9871Z" fill="white"/>
<path d="M53.2668 78.0057H50.0349V88.0002H53.2668V78.0057Z" fill="white"/>
<path d="M54.6239 78.006V87.9944H55.0762H57.8558V83.9764L60.6591 83.9467C61.302 83.9467 61.5103 83.5062 61.5103 83.5062L62.4864 81.8871L57.8558 81.9049V81.2918C57.9153 80.1072 59.0283 80.0596 59.0283 80.0596H62.4269C63.1352 80.0834 63.3375 79.6965 63.3375 79.6965L64.3672 78H54.6239V78.006Z" fill="white"/>
<path d="M68.9504 81.3392V81.9107L73.5751 81.8928L72.599 83.5119C72.599 83.5119 72.3907 83.9465 71.7479 83.9524L68.9802 83.9822L69.004 84.9108C69.004 84.9108 69.004 85.0001 69.0338 85.0953C69.2064 85.5656 69.6528 85.9049 70.1825 85.9049L74.1941 85.9227H75.0452V88.0002H65.7185V78.0057H75.0452V80.0832L70.1825 80.1011C69.498 80.1011 68.9504 80.6547 68.9504 81.3392Z" fill="white"/>
<path d="M48.6838 85.8989L47.7434 87.4406C47.5053 87.7859 47.1125 87.9942 46.6959 88.0002H41.2975C39.4286 88.0002 38.0001 87.274 38.0001 85.1191V78.0057H41.232V84.8155C41.232 85.5418 41.8212 85.8989 42.5652 85.8989H48.6838Z" fill="white"/>
<defs>
<linearGradient id="paint0_linear_1072_8934" x1="140.719" y1="153.188" x2="12.4688" y2="12.4688" gradientUnits="userSpaceOnUse">
<stop stop-color="#07284A"/>
<stop offset="1" stop-color="#005EAC"/>
</linearGradient>
</defs>
</svg>
